<svg width="60" height="55" viewBox="0 0 60 55" fill="none" xmlns="http://www.w3.org/2000/svg">
<circle opacity="0.6" cx="30" cy="30.46" r="24" fill="#CBF3EF"/>
<g filter="url(#filter0_d)">
<path d="M23.1368 25.7494C24.9756 26.3763 27.4131 26.7216 30.0003 26.7216C32.5875 26.7216 35.025 26.3763 36.8638 25.7494C38.8237 25.0812 39.9029 24.1437 39.9029 23.1096C39.9029 22.0755 38.8237 21.1379 36.8638 20.4697C35.025 19.8429 32.5875 19.4976 30.0003 19.4976C27.4131 19.4976 24.9756 19.8429 23.1368 20.4698C21.1769 21.1379 20.0976 22.0755 20.0976 23.1096C20.0976 24.1437 21.1769 25.0812 23.1368 25.7494Z" fill="url(#paint0_linear)"/>
</g>
<path opacity="0.7" fill-rule="evenodd" clip-rule="evenodd" d="M39.2269 27.1292C39.0715 27.1292 38.9033 27.1817 38.7123 27.2897C38.4304 27.4493 38.0744 27.5718 37.6975 27.7015L37.5883 27.7393C35.5306 28.4507 32.8356 28.8426 29.9998 28.8426C27.164 28.8426 24.469 28.4507 22.4113 27.7393C21.8293 27.5381 21.6676 27.4748 21.4526 27.3643C21.234 27.2497 21.0306 27.1915 20.8477 27.1915C20.4517 27.1915 20.2084 27.4573 20.143 27.7207C20.1125 27.8434 20.0971 27.9686 20.0971 28.0929C20.0971 29.1416 21.1764 30.0924 23.1362 30.7699C24.975 31.4056 27.4125 31.7558 29.9997 31.7558C32.5869 31.7558 35.0244 31.4056 36.8632 30.7699C38.8231 30.0924 39.9024 29.1416 39.9024 28.0929C39.9024 27.9297 39.8758 27.7658 39.8226 27.6034C39.6875 27.1908 39.3914 27.1292 39.2269 27.1292Z" fill="url(#paint1_linear)"/>
<path opacity="0.7" fill-rule="evenodd" clip-rule="evenodd" d="M39.2269 31.8689C39.0715 31.8689 38.9033 31.9214 38.7123 32.0295C38.4304 32.1891 38.0744 32.3115 37.6975 32.4413L37.5883 32.479C35.5306 33.1905 32.8356 33.5823 29.9998 33.5823C27.164 33.5823 24.469 33.1905 22.4113 32.479C21.8293 32.2778 21.6676 32.2145 21.4526 32.104C21.234 31.9895 21.0306 31.9313 20.8477 31.9313C20.4517 31.9313 20.2084 32.197 20.143 32.4604C20.1125 32.5832 20.0971 32.7084 20.0971 32.8327C20.0971 33.8813 21.1764 34.8321 23.1362 35.5097C24.975 36.1454 27.4125 36.4955 29.9997 36.4955C32.5869 36.4955 35.0244 36.1454 36.8632 35.5097C38.8231 34.8321 39.9024 33.8813 39.9024 32.8327C39.9024 32.6694 39.8758 32.5055 39.8226 32.3432C39.6875 31.9306 39.3914 31.8689 39.2269 31.8689Z" fill="url(#paint2_linear)"/>
<path opacity="0.7" fill-rule="evenodd" clip-rule="evenodd" d="M39.2269 36.7954C39.0715 36.7954 38.9033 36.848 38.7123 36.956C38.4304 37.1156 38.0744 37.238 37.6975 37.3678L37.5883 37.4055C35.5306 38.117 32.8356 38.5088 29.9998 38.5088C27.164 38.5088 24.469 38.117 22.4113 37.4055C21.8293 37.2043 21.6676 37.141 21.4526 37.0306C21.234 36.916 21.0306 36.8578 20.8477 36.8578C20.4517 36.8578 20.2084 37.1235 20.143 37.3869C20.1125 37.5097 20.0971 37.6349 20.0971 37.7592C20.0971 38.8078 21.1764 39.7586 23.1362 40.4362C24.975 41.0719 27.4125 41.4221 29.9997 41.4221C32.5869 41.4221 35.0244 41.0719 36.8632 40.4362C38.8231 39.7586 39.9024 38.8078 39.9024 37.7592C39.9024 37.5959 39.8758 37.432 39.8226 37.2697C39.6875 36.8571 39.3914 36.7954 39.2269 36.7954Z" fill="url(#paint3_linear)"/>
<defs>
<filter id="filter0_d" x="0.0976257" y="0.497559" width="59.8053" height="47.2241" filterUnits="userSpaceOnUse" color-interpolation-filters="sRGB">
<feFlood flood-opacity="0" result="BackgroundImageFix"/>
<feColorMatrix in="SourceAlpha" type="matrix" values="0 0 0 0 0 0 0 0 0 0 0 0 0 0 0 0 0 0 127 0"/>
<feOffset dy="1"/>
<feGaussianBlur stdDeviation="10"/>
<feColorMatrix type="matrix" values="0 0 0 0 1 0 0 0 0 1 0 0 0 0 1 0 0 0 0.4 0"/>
<feBlend mode="normal" in2="BackgroundImageFix" result="effect1_dropShadow"/>
<feBlend mode="normal" in="SourceGraphic" in2="effect1_dropShadow" result="shape"/>
</filter>
<linearGradient id="paint0_linear" x1="31.0638" y1="7.00637" x2="27.8614" y2="25.9344" gradientUnits="userSpaceOnUse">
<stop stop-color="#B0ECE6"/>
<stop offset="1" stop-color="#7CE0D6"/>
</linearGradient>
<linearGradient id="paint1_linear" x1="31.0632" y1="19.1292" x2="29.7278" y2="31.4539" gradientUnits="userSpaceOnUse">
<stop stop-color="#B0ECE6"/>
<stop offset="1" stop-color="#7CE0D6"/>
</linearGradient>
<linearGradient id="paint2_linear" x1="31.0632" y1="23.8689" x2="29.7278" y2="36.1936" gradientUnits="userSpaceOnUse">
<stop stop-color="#B0ECE6"/>
<stop offset="1" stop-color="#7CE0D6"/>
</linearGradient>
<linearGradient id="paint3_linear" x1="31.0632" y1="28.7954" x2="29.7278" y2="41.1202" gradientUnits="userSpaceOnUse">
<stop stop-color="#B0ECE6"/>
<stop offset="1" stop-color="#7CE0D6"/>
</linearGradient>
</defs>
</svg>
